<svg width="90" height="36" viewBox="0 0 90 36" fill="none" xmlns="http://www.w3.org/2000/svg">
  <path d="M52.1748 26.6667C52.1748 26.8172 52.2506 26.8925 52.3264 26.8925C52.4022 26.8925 52.478 26.8925 52.5538 26.8172L80.6005 8.75269C81.0554 8.45161 81.6618 8.22581 82.2682 8.22581H88.4082C89.242 8.15054 89.9242 8.82796 90 9.65591V21.4731C90 22.9032 89.6968 23.7312 88.4082 24.4839L80.9038 28.9247C80.8279 29 80.7522 29 80.6764 29C80.6006 29 80.5247 28.9247 80.5247 28.6989V15.0753C80.5247 14.9247 80.4489 14.8495 80.3731 14.8495C80.2973 14.8495 80.2215 14.8495 80.1457 14.9247L59.6034 28.172C59.1486 28.4731 58.5422 28.6237 58.0115 28.6237H44.3672C43.5333 28.6989 42.8511 28.0215 42.7753 27.1935V10.1828C42.7753 10.1075 42.6995 9.95699 42.6237 9.95699C42.5479 9.95699 42.4721 9.95699 42.3963 10.0323L28.9794 18.1613C28.9036 18.1613 28.8278 18.3118 28.8278 18.3871C28.8278 18.4624 28.9036 18.5376 28.9794 18.6129L38.682 28.2473C38.7578 28.3226 38.8336 28.4731 38.9094 28.5484C38.9094 28.6989 38.7578 28.6989 38.6062 28.6989H29.7374C29.131 28.7742 28.6003 28.6237 28.1455 28.2473L22.3088 22.4516C22.233 22.3011 22.233 22.3011 22.1572 22.3011C22.0814 22.3011 22.0056 22.3011 22.0056 22.3763L12.1513 28.2473C11.6965 28.5484 11.0901 28.6989 10.5595 28.6989H1.61482C0.780993 28.7742 0.0987754 28.0968 0.0229733 27.2688V15.6021C-0.128631 14.3978 0.477784 13.1935 1.61482 12.5914L9.11922 8.15054C9.11922 8 9.19502 8 9.27082 8C9.34663 8 9.42243 8.15054 9.42243 8.37634V23.8065C9.42243 23.957 9.49823 24.0323 9.57403 24.0323C9.64983 24.0323 9.72563 23.957 9.80144 23.957L35.2709 8.67742C35.8015 8.37635 36.3322 8.15054 36.9386 8.22581H50.5829C51.4168 8.15054 52.099 8.82796 52.1748 9.65591V26.6667Z" fill="white"/>
</svg>
