<svg width="37" height="36" viewBox="0 0 37 36" fill="none" xmlns="http://www.w3.org/2000/svg">
  <path d="M18.5077 36C8.2822 36 0 27.9416 0 18.0075C0 8.05836 8.2822 0 18.4923 0C28.7178 0 37 8.05836 37 17.9925C37 18.0525 37 18.1276 37 18.1876C36.892 28.0617 28.6407 36 18.5077 36ZM24.3531 8.05836C24.8774 8.08837 25.371 8.11838 25.8645 8.1634C26.6665 8.20842 27.4531 8.4035 28.178 8.74864C28.471 8.86869 28.7024 9.09379 28.8103 9.3639C28.8875 9.589 28.9183 9.82909 28.9337 10.0542C28.9337 10.2643 28.98 10.3693 29.2113 10.4293C29.7511 10.5644 30.291 10.7295 30.8153 10.8945C31.4323 11.0446 31.8795 11.5248 31.9875 12.1251C32.0646 12.5452 32.08 12.9804 32.0338 13.4006C31.9412 13.8958 31.8178 14.376 31.6636 14.8412C31.6636 14.9162 31.5556 14.9762 31.5094 15.0513C31.4323 14.9912 31.3706 14.9312 31.3089 14.8562C31.2318 14.7211 31.1701 14.5711 31.093 14.421C30.9233 14.0609 30.5531 13.8208 30.1521 13.7907C29.1188 13.6857 28.07 13.7157 27.0367 13.8508C26.9287 13.8808 26.8208 13.9408 26.7128 14.0008C26.8053 14.0609 26.8979 14.1209 26.9904 14.1809C27.0521 14.2109 27.1292 14.2259 27.1909 14.2259L28.4556 14.451C28.8874 14.511 29.2576 14.7812 29.4273 15.1713C29.5352 15.4264 29.4735 15.5315 29.2113 15.5615H28.8875C28.0238 15.6215 27.1601 15.6665 26.2964 15.7566C25.664 15.8166 25.4327 16.1167 25.4173 16.747C25.371 18.1125 25.4481 19.4781 25.6486 20.8287C25.772 22.1042 26.5277 23.2447 27.6999 23.8599C29.3039 24.7453 30.9541 25.5256 32.6507 26.2159C32.8203 26.291 32.9129 26.2609 32.99 26.0959C33.2368 25.6307 33.499 25.1205 33.7303 24.6403C34.5015 23.0496 34.995 21.3389 35.1801 19.5832C35.3035 18.2626 35.2726 16.9271 35.0567 15.6065C34.7791 13.6857 34.1467 11.8399 33.2059 10.1292C31.9104 7.87828 30.0905 5.95748 27.885 4.51688C25.6178 2.97124 22.9958 2.02584 20.2505 1.77074C18.554 1.62067 16.842 1.71071 15.1609 2.04085C11.2589 2.82118 7.77324 4.95206 5.36724 8.02835C5.30554 8.08837 5.29012 8.1634 5.30554 8.25344C5.33639 8.29846 5.44435 8.32847 5.52147 8.34348C5.59858 8.34348 5.66027 8.34348 5.73739 8.34348H14.9758C15.4077 8.34348 15.4539 8.43351 15.238 8.80867C13.5877 11.6298 11.9375 14.451 10.2872 17.2722C10.133 17.5873 9.80909 17.7674 9.45436 17.7374C7.03293 17.7374 4.62693 17.7374 2.23635 17.7374C1.88162 17.7374 1.86619 17.7374 1.86619 18.0825C1.86619 19.3581 2.03585 20.6486 2.34431 21.8941C2.406 22.1492 2.56023 22.3743 2.77616 22.5244C3.65527 23.1396 4.71947 23.4698 5.81451 23.4698C7.46478 23.4698 9.11505 23.4698 10.7653 23.4698C11.1817 23.4698 11.5827 23.4698 11.9992 23.4698C12.1534 23.4998 12.2768 23.3947 12.3076 23.2597C12.3539 23.0496 12.431 22.8245 12.4927 22.6144C12.539 22.4794 12.4927 22.4043 12.3385 22.4043C12.1842 22.4043 12.1534 22.4043 12.0609 22.4043C11.7215 22.4043 11.3822 22.3743 11.0429 22.3443C10.8116 22.3443 10.7499 22.2243 10.827 21.9992C10.827 21.9541 10.8733 21.8941 10.8887 21.8491C11.4285 20.7236 11.9683 19.5832 12.5236 18.4577C12.7241 18.0225 13.0942 17.6774 13.5569 17.5123C13.9733 17.3622 14.3743 17.1972 14.7753 17.0171C14.8679 16.9721 14.9296 16.867 14.9912 16.792C14.9141 16.732 14.8062 16.687 14.7136 16.6719C14.4206 16.6419 14.1276 16.6419 13.8345 16.6269C13.5415 16.5969 13.526 16.4769 13.6494 16.2818C14.2355 15.3364 14.8216 14.376 15.4385 13.4306C15.6544 13.1155 15.9783 12.8754 16.3639 12.7853C16.6415 12.7103 16.9191 12.6203 17.1967 12.5152C17.3201 12.4552 17.4281 12.3802 17.5206 12.2751L17.4744 12.1851C17.1967 12.1401 16.9346 12.11 16.6569 12.065C16.3793 12.02 16.3793 11.9 16.5027 11.7049C16.6261 11.5098 16.7186 11.3897 16.8266 11.2397C17.3201 10.4293 17.9679 9.73906 18.7545 9.21384C19.4639 8.79366 20.2505 8.50854 21.0679 8.37349C21.2376 8.32847 21.3918 8.25344 21.5152 8.13339C22.5794 7.18799 23.6282 6.21259 24.6769 5.25219C24.7386 5.20717 24.8003 5.16215 24.9083 5.07211C24.6769 6.12255 24.5227 7.08295 24.3531 8.05836ZM3.94831 9.90413L3.97916 10.0992C4.45727 12.065 4.90454 14.0459 5.36724 16.0117C5.41351 16.1767 5.4752 16.2068 5.64485 16.2068C6.50854 16.2068 7.38766 16.2068 8.25135 16.2068C8.45185 16.2368 8.63693 16.1317 8.69862 15.9516C9.82451 14.0008 10.9504 12.065 12.0763 10.1292C12.1226 10.0692 12.138 9.99416 12.1997 9.90413C11.5982 9.90413 11.0121 9.90413 10.4414 9.90413C10.1638 9.88912 9.91705 10.0242 9.79366 10.2643C8.99166 11.6449 8.17424 13.0254 7.37224 14.406L7.23343 14.6161C6.89412 13.2055 6.57024 11.8099 6.23093 10.4444C6.09212 9.81409 6.13839 9.90413 5.53689 9.90413H3.94831ZM4.91997 27.3564C4.91997 27.3864 4.91997 27.4014 4.91997 27.4314C4.93539 27.4764 4.96623 27.5065 4.99708 27.5515C6.61651 29.7124 8.74489 31.4531 11.1972 32.6236C11.3051 32.6836 11.4439 32.6686 11.5365 32.5786C12.0917 32.1284 12.6624 31.6932 13.233 31.243L13.8345 30.7778L13.6803 30.5977C13.3256 30.1776 12.9708 29.7724 12.6469 29.3522C12.539 29.1872 12.3847 29.0821 12.1997 29.0371L6.23093 27.6565L4.91997 27.3564ZM27.9466 10.4744C27.8078 10.4444 27.7307 10.4143 27.6536 10.4143C27.2526 10.3693 26.8362 10.3393 26.4352 10.2493C26.0342 10.1592 25.6178 10.2643 25.3247 10.5344C25.2784 10.5794 25.2168 10.6394 25.2168 10.6845C25.2322 10.7445 25.2939 10.7895 25.3556 10.8195C25.8337 10.9696 26.3272 11.1196 26.8362 11.2247C27.0058 11.2547 27.1755 11.2247 27.3143 11.1196C27.5456 10.9095 27.7461 10.6995 27.9466 10.4744Z" fill="black"/>
</svg>
