<svg width="78" height="36" viewBox="0 0 78 36" fill="none" xmlns="http://www.w3.org/2000/svg">
  <path d="M21 3H14.2648V19.443C14.2648 21.5806 12.744 22.85 10.2823 22.85C7.82169 22.85 6.5178 21.1797 6.5178 19.3751V16.4353H0V19.443C0 22.5156 1.01346 28 10.3548 28C19.695 28 21 22.1157 21 19.3102V3Z" fill="#231F20"/>
  <path fill-rule="evenodd" clip-rule="evenodd" d="M59.3265 10.2829V33.8778H65.2771V27.3787C65.2771 26.9001 65.7551 26.9712 66.0995 27.3787C66.4432 27.7919 67.9468 28.8159 70.5475 28.8159C75.2672 28.8159 78.0001 24.7132 78.0001 19.1053C78.0001 11.8554 73.4194 9.80434 70.4749 9.80434C67.5467 9.80434 66.2326 11.3822 66.1426 11.4902L66.1405 11.4927C65.7257 11.9902 65.2108 12.5167 65.2108 11.24V10.2829H59.3265ZM68.7028 24.6437C65.8294 24.6437 65.0765 22.7974 65.1397 19.3117C65.2108 15.8223 66.5759 14.3856 68.4248 14.3856C71.4388 14.3856 71.9832 16.7105 71.9832 19.1053C71.9832 21.4986 71.5715 24.6437 68.7028 24.6437Z" fill="#231F20"/>
  <path fill-rule="evenodd" clip-rule="evenodd" d="M29.752 9.59902C34.7471 9.59902 39.122 11.5132 39.122 20.3357H27.2919C27.2919 23.1396 28.4532 24.3025 30.5048 24.3025C32.557 24.3025 33.2403 22.66 33.2403 22.66H39.0551C39.0551 25.1912 35.5668 28.6106 30.2995 28.5427C24.2831 28.5427 21.3418 24.0972 21.3418 19.5149C21.3418 14.931 23.9388 9.59902 29.752 9.59902ZM33.5094 16.7805C33.5094 15.069 32.5538 13.428 30.3653 13.428C28.2453 13.428 27.4924 14.931 27.4924 16.7805H33.5094Z" fill="#231F20"/>
  <path fill-rule="evenodd" clip-rule="evenodd" d="M58.0325 20.3357C58.0325 11.5132 53.6586 9.59902 48.6641 9.59902C42.8525 9.59902 40.2523 14.931 40.2523 19.5149C40.2523 24.0972 43.1937 28.5427 49.2132 28.5427C54.4789 28.6106 57.9677 25.1912 57.9677 22.66H52.153C52.153 22.66 51.4686 24.3025 49.4185 24.3025C47.3653 24.3025 46.2029 23.1396 46.2029 20.3357H58.0325ZM49.2764 13.428C51.4649 13.428 52.4215 15.069 52.4215 16.7805H46.403C46.403 14.931 47.1574 13.428 49.2764 13.428Z" fill="#231F20"/>
</svg>
