<svg width="160" height="36" viewBox="0 0 160 36" fill="none" xmlns="http://www.w3.org/2000/svg">
  <path d="M29.0297 4.36118L28.154 5.68815C34.0476 8.13791 36.4049 12.5611 36.4049 17.3245C36.4049 19.7063 35.7651 21.8497 34.519 21.8497C30.4441 21.8497 21.688 21.8497 19.095 21.8497C17.007 21.8497 16.3671 21.1012 17.3101 19.1959C18.9939 15.8274 24.0455 9.3968 27.1775 5.51803C27.6489 4.93961 28.0193 4.05497 26.3692 3.61265C24.6854 3.17033 21.9911 2.96619 19.7011 2.96619C8.08252 3.00021 0 9.32876 0 17.5287C0 25.0481 7.00484 32.0911 19.6675 32.0911C25.2579 32.0911 32.128 30.492 36.0009 26.0347H32.6668C28.8612 29.5053 23.9444 30.2878 19.7011 30.2878C9.49695 30.2878 3.03094 24.9119 3.03094 17.5287C3.03094 10.6897 10.3389 4.56534 19.5664 4.56534C20.6778 4.56534 21.0481 4.80351 19.8695 6.26656C17.5121 9.22668 13.3025 15.1129 11.3155 18.5493C9.19385 22.2241 11.3492 25.2181 16.1313 25.2181C19.4991 25.2181 31.5891 25.2181 35.462 25.2181C36.6407 25.2181 37.3479 24.5377 38.0215 23.2788C38.594 22.292 39.4359 20.2506 39.4359 17.5287C39.4359 11.9827 35.3273 6.879 29.0297 4.36118Z" fill="white"/>
  <path d="M155.084 16.4397C152.288 16.4397 145.889 16.4397 141.983 16.4397C142.421 14.7385 143.7 13.5817 146.159 13.5817C149.055 13.5817 158.687 13.5817 158.687 13.5817V10.7236C158.687 10.7236 152.153 10.7236 145.351 10.7236C137.74 10.7236 135.955 16.1675 135.955 19.2637C135.955 19.2637 149.425 19.2637 152.188 19.2637C154.41 19.2637 154.41 22.2919 152.255 22.2919C150.032 22.2919 134.338 22.2919 134.338 22.2919V10.7236H128.95V22.2919C128.95 22.2919 122.955 22.2919 119.992 22.2919C117.601 22.2919 116.59 21.1351 116.59 19.3318C116.59 17.1542 116.59 10.7236 116.59 10.7236H107.935L100.19 15.6572L93.5215 10.7236C85.9778 10.7236 86.0114 10.7236 74.3254 10.7236C68.7687 10.7236 64.8285 13.99 64.357 18.1069H67.9605C66.5123 19.0596 65.401 20.6247 64.7612 22.326C59.2381 22.326 54.6581 22.326 53.4119 22.326C51.2566 22.326 50.28 21.2032 50.28 19.0937C50.28 17.6986 50.28 10.7236 50.28 10.7236H44.8579C44.8579 10.7236 44.8579 14.5344 44.8579 17.8348C44.8579 22.36 47.2828 25.184 52.8058 25.184C57.4533 25.184 90.6252 25.184 90.6252 25.184L98.4045 20.2505L105.073 25.218H113.054L102.648 17.5286L111.135 12.1867C111.135 14.058 111.135 17.8348 111.135 20.3186C111.135 22.8364 114.368 25.2521 117.297 25.2521C121.103 25.2521 148.752 25.2521 155.084 25.2521C161.651 25.218 161.616 16.4397 155.084 16.4397ZM89.6486 22.36C89.6486 22.36 80.4883 22.36 71.2946 22.36C71.4966 20.7949 72.2711 19.2637 74.797 19.2637C79.3097 19.2637 86.1798 19.2637 86.1798 19.2637V16.4397H71.025C71.2946 15.2829 72.4732 13.6157 75.201 13.6157C79.7138 13.6157 87.2237 13.6157 87.2237 13.6157V12.0506L95.8789 18.4131L89.6486 22.36Z" fill="white"/>
</svg>
