<svg width="154" height="36" viewBox="0 0 154 36" fill="none" xmlns="http://www.w3.org/2000/svg">
  <path fill-rule="evenodd" clip-rule="evenodd" d="M115.126 13.6104H115.271C115.598 13.6104 115.816 13.6104 115.997 13.6479C116.143 13.6854 116.252 13.7229 116.288 13.7605C116.324 13.798 116.324 13.8731 116.324 13.9481V27.1209C116.324 27.1959 116.324 27.2335 116.288 27.3084C116.252 27.346 116.179 27.3834 115.997 27.421C115.852 27.4586 115.598 27.4586 115.271 27.4586H115.126C114.654 27.4586 114.364 27.421 114.219 27.3834C114.11 27.346 114.037 27.2708 114.037 27.1209V13.9481C114.037 13.8355 114.11 13.7605 114.219 13.6854C114.364 13.6479 114.654 13.6104 115.126 13.6104ZM114.037 10.533C113.71 10.1952 113.565 9.81994 113.565 9.36959C113.565 8.91925 113.71 8.54396 114.037 8.2062C114.364 7.86844 114.727 7.71832 115.163 7.71832C115.598 7.71832 115.961 7.86844 116.288 8.2062C116.615 8.54396 116.76 8.91925 116.76 9.36959C116.76 9.81994 116.615 10.1952 116.288 10.533C115.961 10.8708 115.598 11.0209 115.163 11.0209C114.727 11.0209 114.364 10.8708 114.037 10.533Z" fill="black"/>
  <path fill-rule="evenodd" clip-rule="evenodd" d="M121.37 7.53064H121.515C121.915 7.53064 122.169 7.56817 122.314 7.6057C122.459 7.64323 122.532 7.75581 122.568 7.8684C122.677 8.46886 122.713 11.0584 122.713 15.6369V24.3436C122.713 24.8315 122.786 25.2068 122.895 25.3944C123.004 25.5821 123.258 25.6571 123.693 25.6571H123.948C124.056 25.6571 124.093 25.8822 124.093 26.3703V26.4453C124.093 26.9707 124.056 27.2334 123.948 27.2708C123.584 27.421 123.185 27.4962 122.749 27.4962C121.878 27.4962 121.261 27.1958 120.862 26.5954C120.571 26.1449 120.426 25.2443 120.426 23.8557V15.074C120.426 11.0959 120.39 8.73156 120.281 7.90593C120.281 7.79334 120.317 7.68075 120.499 7.64323C120.644 7.56817 120.934 7.53064 121.37 7.53064Z" fill="black"/>
  <path fill-rule="evenodd" clip-rule="evenodd" d="M128.449 13.6104H128.594C128.921 13.6104 129.139 13.6104 129.321 13.6479C129.466 13.6854 129.575 13.7229 129.611 13.7605C129.647 13.798 129.647 13.8731 129.647 13.9481V27.1209C129.647 27.1959 129.647 27.2335 129.611 27.3084C129.575 27.346 129.502 27.3834 129.321 27.421C129.175 27.4586 128.921 27.4586 128.594 27.4586H128.449C127.977 27.4586 127.687 27.421 127.542 27.3834C127.433 27.346 127.36 27.2708 127.36 27.1209V13.9481C127.36 13.8355 127.433 13.7605 127.542 13.6854C127.687 13.6479 127.977 13.6104 128.449 13.6104ZM127.397 10.533C127.07 10.1952 126.925 9.81994 126.925 9.36959C126.925 8.91925 127.07 8.54396 127.397 8.2062C127.723 7.86844 128.086 7.71832 128.522 7.71832C128.958 7.71832 129.321 7.86844 129.647 8.2062C129.974 8.54396 130.119 8.91925 130.119 9.36959C130.119 9.81994 129.974 10.1952 129.647 10.533C129.321 10.8708 128.958 11.0209 128.522 11.0209C128.086 11.0209 127.687 10.8708 127.397 10.533Z" fill="black"/>
  <path fill-rule="evenodd" clip-rule="evenodd" d="M134.983 9.74475H135.129C135.455 9.74475 135.673 9.74475 135.855 9.78228C136 9.81981 136.109 9.85734 136.145 9.89487C136.181 9.9324 136.181 10.0075 136.181 10.0825V13.6102H139.376C139.521 13.6102 139.594 13.8729 139.594 14.4359V14.661C139.594 15.224 139.521 15.4867 139.376 15.4867H136.181V23.2177C136.181 24.2685 136.327 24.944 136.581 25.2442C136.871 25.5444 137.307 25.7321 137.888 25.7321C138.323 25.7321 138.868 25.6195 139.594 25.3943C139.703 25.3568 139.811 25.3943 139.848 25.4319C139.921 25.5069 139.957 25.657 140.029 25.9198L140.102 26.2575C140.211 26.7077 140.175 27.0081 140.029 27.083C139.376 27.5335 138.468 27.721 137.379 27.721C136.29 27.721 135.419 27.421 134.838 26.8579C134.185 26.2575 133.858 25.0941 133.858 23.4053V15.4867H132.261C132.116 15.4867 132.043 15.224 132.043 14.661V14.4359C132.043 13.9105 132.116 13.6102 132.261 13.6102H133.858V10.045C133.858 9.9324 133.931 9.85734 134.04 9.78228C134.221 9.78228 134.511 9.74475 134.983 9.74475Z" fill="black"/>
  <path fill-rule="evenodd" clip-rule="evenodd" d="M144.095 13.9105L146.491 20.4406C147.108 22.0918 147.58 23.593 147.87 24.9065C148.052 24.1184 148.488 22.6548 149.177 20.6282L151.428 13.9105C151.501 13.7229 151.864 13.6103 152.553 13.6103C153.025 13.6103 153.388 13.6478 153.533 13.6853C153.715 13.7229 153.751 13.8355 153.715 13.9856L148.923 27.7587C148.234 29.7103 147.544 31.0989 146.781 31.9621C145.801 33.0127 144.567 33.5758 143.006 33.5758C142.244 33.5758 141.554 33.4256 140.973 33.0879C140.755 32.9754 140.755 32.7126 140.9 32.2621L141.01 31.9621C141.118 31.6617 141.191 31.4366 141.264 31.3614C141.336 31.2864 141.445 31.2488 141.554 31.2864C142.099 31.4366 142.534 31.5115 142.933 31.5115C143.769 31.5115 144.494 31.2115 145.039 30.6484C145.584 30.0856 146.128 29.0723 146.673 27.6085L141.627 13.9856C141.554 13.8355 141.627 13.7229 141.772 13.6853C141.953 13.6478 142.28 13.6103 142.825 13.6103C143.623 13.6103 144.059 13.7229 144.095 13.9105Z" fill="black"/>
  <path fill-rule="evenodd" clip-rule="evenodd" d="M44.5919 8.58148H44.737C45.5718 8.58148 46.0438 8.69407 46.1163 8.95677L50.8356 21.1537L55.4098 8.95677C55.4824 8.69407 55.9178 8.58148 56.7166 8.58148H56.898C57.7694 8.58148 58.205 8.69407 58.205 8.95677L58.931 27.1209C58.931 27.3084 58.6042 27.421 57.9508 27.421H57.6605C56.9706 27.421 56.6077 27.3084 56.6077 27.1209L56.1358 12.5971L51.9973 23.9309C51.9247 24.1185 51.5616 24.1936 50.8719 24.1936H50.6542C49.9643 24.1936 49.5652 24.081 49.5289 23.8933L45.2815 13.0099L44.7733 27.1959C44.7733 27.3836 44.4102 27.4962 43.7205 27.4962H43.4665C42.8129 27.4962 42.4863 27.3836 42.4863 27.1959L43.3211 9.03183C43.3211 8.84418 43.43 8.7316 43.5754 8.69407C43.7205 8.61901 44.0473 8.58148 44.5919 8.58148Z" fill="black"/>
  <path fill-rule="evenodd" clip-rule="evenodd" d="M67.7163 15.4493C66.591 15.4493 65.6833 15.8621 64.9574 16.7253C64.2314 17.5884 63.8683 18.9019 63.8683 20.6658C63.8683 21.529 63.9772 22.3171 64.1589 23.0301C64.3403 23.7432 64.7034 24.3437 65.2842 24.8691C65.8287 25.3945 66.5547 25.6572 67.426 25.6572C68.5514 25.6572 69.4587 25.2443 70.185 24.3812C70.9109 23.518 71.274 22.2045 71.274 20.4406C71.274 19.5775 71.1649 18.7893 70.9835 18.0763C70.8021 17.3632 70.4389 16.7628 69.8581 16.2749C69.2773 15.712 68.5514 15.4493 67.7163 15.4493ZM67.7889 13.3477C69.3862 13.3477 70.6567 13.798 71.6006 14.6612C72.9439 15.8996 73.5973 17.7385 73.5973 20.2154C73.5973 22.6549 73.0164 24.4938 71.8911 25.7697C70.7658 27.0457 69.2048 27.6837 67.2806 27.6837C65.6833 27.6837 64.4129 27.2335 63.469 26.3701C62.1259 25.1318 61.4725 23.2928 61.4725 20.8159C61.4725 18.3765 62.0533 16.5376 63.1787 15.2616C64.3403 13.9856 65.865 13.3477 67.7889 13.3477Z" fill="black"/>
  <path fill-rule="evenodd" clip-rule="evenodd" d="M78.026 9.74475H78.1712C78.498 9.74475 78.7157 9.74475 78.8974 9.78228C79.0788 9.81981 79.1514 9.85734 79.1877 9.89487C79.2239 9.9324 79.2239 10.0075 79.2239 10.0825V13.6102H82.4185C82.5637 13.6102 82.6365 13.8729 82.6365 14.4359V14.661C82.6365 15.224 82.5637 15.4867 82.4185 15.4867H79.2239V23.2177C79.2239 24.2685 79.3693 24.944 79.6233 25.2442C79.9139 25.5444 80.3493 25.7321 80.9301 25.7321C81.3658 25.7321 81.9103 25.6195 82.6365 25.3943C82.7454 25.3568 82.8542 25.3943 82.8905 25.4319C82.9631 25.5069 82.9993 25.657 83.0719 25.9198L83.1447 26.2575C83.2536 26.7077 83.2173 27.0081 83.0719 27.083C82.4185 27.5335 81.5112 27.721 80.4221 27.721C79.3331 27.721 78.4617 27.421 77.8809 26.8579C77.2275 26.2575 76.9007 25.0941 76.9007 23.4053V15.4867H75.3034C75.1583 15.4867 75.0857 15.224 75.0857 14.661V14.4359C75.0857 13.9105 75.1583 13.6102 75.3034 13.6102H76.9007V10.045C76.9007 9.9324 76.9733 9.85734 77.0821 9.78228C77.2638 9.78228 77.5541 9.74475 78.026 9.74475Z" fill="black"/>
  <path fill-rule="evenodd" clip-rule="evenodd" d="M94.1438 20.966V17.2506C93.8535 16.7628 93.4179 16.3124 92.8733 15.9747C92.3288 15.6369 91.7843 15.4493 91.2035 15.4493C90.0418 15.4493 89.1342 15.8996 88.4808 16.8378C87.8275 17.776 87.5006 19.0145 87.5006 20.5907C87.5006 22.0168 87.7912 23.1802 88.3357 24.156C88.8802 25.0942 89.7513 25.5821 90.9495 25.5821C92.0385 25.5821 92.8733 25.2443 93.4904 24.5688C93.7447 24.2685 93.9261 23.8933 93.9987 23.4054C94.0712 22.955 94.1438 22.1669 94.1438 20.966ZM95.4145 13.6103H95.4508C95.8865 13.6103 96.1768 13.6478 96.2856 13.6854C96.3947 13.7229 96.4673 13.798 96.4673 13.9481C96.4673 14.0607 96.4673 14.5861 96.431 15.5618C96.431 16.5001 96.3947 17.2882 96.3947 17.9637V21.6415C96.3947 23.1052 96.4673 24.9441 96.5762 27.1958C96.5762 27.4209 96.2856 27.4962 95.6685 27.4962H95.5597C94.9426 27.4962 94.6158 27.3833 94.5795 27.1958L94.4343 25.995C93.9987 26.5202 93.4541 26.9331 92.7645 27.2708C92.0748 27.6087 91.3123 27.7586 90.5501 27.7586C88.8077 27.7586 87.4643 27.1209 86.5204 25.8072C85.5768 24.4937 85.1411 22.8424 85.1411 20.8159C85.1411 18.6017 85.6856 16.8003 86.7747 15.4493C87.8637 14.0982 89.2796 13.4227 90.9495 13.4227C92.4014 13.4227 93.5267 13.9856 94.3618 15.1115L94.4706 14.0231C94.4706 13.873 94.5432 13.7604 94.652 13.7604C94.7612 13.6478 95.0152 13.6103 95.4145 13.6103Z" fill="black"/>
  <path fill-rule="evenodd" clip-rule="evenodd" d="M102.276 21.9793V25.2443C103.002 25.5446 103.728 25.6947 104.49 25.6947C105.906 25.6947 106.959 25.2068 107.685 24.2686C108.411 23.2928 108.774 22.0168 108.774 20.4031C108.774 17.2131 107.685 15.6369 105.543 15.6369C104.49 15.6369 103.655 15.9747 103.038 16.6127C102.675 16.9879 102.421 17.6259 102.348 18.4891C102.312 19.1646 102.276 20.3655 102.276 21.9793ZM101.078 7.53064H101.223C101.55 7.53064 101.768 7.53064 101.949 7.56817C102.094 7.6057 102.203 7.64323 102.239 7.68076C102.276 7.71828 102.276 7.79334 102.276 7.8684V14.8863C102.639 14.436 103.183 14.0607 103.873 13.7605C104.563 13.4602 105.289 13.3101 106.051 13.3101C108.084 13.3101 109.536 14.2859 110.407 16.1998C110.916 17.3257 111.17 18.6392 111.17 20.1404C111.17 22.5047 110.625 24.3436 109.5 25.6947C108.411 27.0457 106.777 27.6837 104.672 27.6837C102.893 27.6837 101.368 27.3833 100.061 26.7829C100.025 26.7829 99.9885 26.6704 99.9885 26.5202V7.83087C99.9885 7.71828 100.061 7.64323 100.17 7.56817C100.315 7.56817 100.606 7.53064 101.078 7.53064Z" fill="black"/>
  <path fill-rule="evenodd" clip-rule="evenodd" d="M15.5128 15.3091C15.5128 15.3091 15.6217 4.57582 13.6251 2.21149C11.6648 -0.152834 9.30521 1.76115 10.0676 3.71265C10.7573 5.43898 12.2457 5.70168 15.5128 15.3091ZM14.6415 16.2849C14.6415 16.2849 10.7936 6.33967 8.07095 4.91358C5.38462 3.52501 3.89623 6.18956 5.34831 7.72827C6.61887 9.00425 8.07095 8.70402 14.6415 16.2849ZM14.2059 17.4858C14.2059 17.4858 6.94558 9.82989 3.93254 9.56719C0.955803 9.34201 0.556484 12.4194 2.44418 13.245C4.11404 13.9581 5.34831 13.0949 14.2059 17.4858ZM14.2785 18.7993C14.2785 18.7993 4.73119 14.5961 1.86335 15.5718C-1.00449 16.5476 -0.205853 19.5124 1.86335 19.5499C3.60583 19.5499 4.44076 18.2364 14.2785 18.7993ZM14.7868 19.9627C14.7868 19.9627 4.40448 19.8501 2.11746 21.9142C-0.16955 23.9408 1.68184 26.3801 3.56952 25.5921C5.23941 24.879 5.49353 23.3403 14.7868 19.9627ZM15.7306 20.8634C15.7306 20.8634 6.11065 24.8415 4.73119 27.6562C3.38802 30.4334 5.96543 31.9721 7.45382 30.471C8.68807 29.1573 8.39766 27.6562 15.7306 20.8634ZM16.8923 21.3138C16.8923 21.3138 9.48671 28.8196 9.23259 31.9345C9.01478 35.0118 11.9915 35.4247 12.7902 33.4733C13.4799 31.7467 12.645 30.471 16.8923 21.3138ZM18.1628 21.2387C18.1628 21.2387 14.097 31.1087 15.0409 34.0737C15.9847 37.0384 18.8526 36.2129 18.8889 34.0737C18.8889 32.2722 17.6183 31.4091 18.1628 21.2387ZM19.2882 20.7133C19.2882 20.7133 19.1793 31.4091 21.1759 33.811C23.1362 36.1753 25.4958 34.2612 24.7335 32.3098C24.0437 30.5835 22.5554 30.3208 19.2882 20.7133ZM20.1594 19.7375C20.1594 19.7375 24.0074 29.6828 26.73 31.1087C29.4164 32.4973 30.9048 29.833 29.4527 28.2942C28.1822 27.0182 26.73 27.3185 20.1594 19.7375ZM20.5951 18.5366C20.5951 18.5366 27.8554 26.1926 30.8685 26.4554C33.8452 26.6805 34.2446 23.603 32.3567 22.7774C30.6869 22.0268 29.4527 22.9275 20.5951 18.5366ZM20.5224 17.2231C20.5224 17.2231 30.0698 21.4263 32.9375 20.4506C35.8056 19.4748 35.0068 16.5101 32.9375 16.4725C31.1951 16.4725 30.3603 17.786 20.5224 17.2231ZM20.0142 16.0597C20.0142 16.0597 30.3966 16.1723 32.6835 14.1082C34.9705 12.0816 33.1192 9.64224 31.2314 10.4304C29.5615 11.1434 29.3075 12.6821 20.0142 16.0597ZM19.0704 15.159C19.0704 15.159 28.6904 11.1809 30.0698 8.36626C31.4131 5.5891 28.8356 4.05041 27.3471 5.55157C26.1129 6.8651 26.4032 8.36626 19.0704 15.159ZM17.9087 14.7086C17.9087 14.7086 25.3143 7.20286 25.5684 4.08794C25.7862 1.01057 22.8094 0.597747 22.0108 2.54925C21.3211 4.27558 22.156 5.55157 17.9087 14.7086ZM15.9121 1.91126C15.9121 -0.227889 18.8163 -1.016 19.7601 1.91126C20.704 4.91358 16.6382 14.7462 16.6382 14.7462C17.1827 4.61334 15.9121 3.75018 15.9121 1.91126Z" fill="black"/>
</svg>
