<svg width="52" height="36" viewBox="0 0 52 36" fill="none" xmlns="http://www.w3.org/2000/svg">
  <path d="M27.1118 36C26.373 36 25.6328 36 24.8941 36C24.7929 35.9876 24.6932 35.9722 24.5919 35.9645C23.6652 35.8949 22.7357 35.8485 21.8103 35.7542C19.5044 35.5177 17.2419 35.0323 15.0256 34.315C11.764 33.2592 8.71642 31.7396 6.00857 29.4997C4.31129 28.0945 2.84243 26.4605 1.74657 24.4756C-0.112634 21.1072 -0.53334 17.5626 0.705648 13.8495C1.48489 11.5214 2.82798 9.58442 4.492 7.8917C6.56085 5.78934 8.96363 4.23266 11.5732 3.02844C15.358 1.28162 19.3295 0.375754 23.4325 0.0882254C25.4189 -0.0509017 27.4039 -0.0230763 29.3889 0.154697C31.5372 0.347929 33.6566 0.723572 35.7413 1.30945C38.9465 2.20914 41.9753 3.54167 44.7353 5.52345C46.7535 6.97192 48.5202 8.70019 49.8777 10.8752C50.9317 12.5632 51.6429 14.3936 51.8931 16.4155C51.9321 16.7309 51.9638 17.0479 52 17.3647C52 17.7867 52 18.2088 52 18.6323C51.987 18.7127 51.9726 18.7915 51.9625 18.872C51.9161 19.2708 51.8887 19.6711 51.8236 20.0653C51.4709 22.2203 50.6049 24.134 49.3818 25.8716C47.8667 28.0234 45.9598 29.7053 43.8216 31.0996C41.1643 32.8326 38.296 34.0136 35.2831 34.8128C32.9729 35.4249 30.6279 35.7929 28.2511 35.9258C27.8723 35.9459 27.492 35.9753 27.1118 36ZM6.69095 9.27525C6.64324 9.32935 6.61867 9.34945 6.60132 9.37573C6.21531 9.98321 5.78738 10.566 5.45197 11.203C3.54505 14.8172 3.32531 18.5411 4.9185 22.3439C5.90014 24.6859 7.43984 26.5657 9.30049 28.1579C11.5602 30.0918 14.1119 31.4336 16.8587 32.3688C18.9044 33.0644 21.0008 33.4942 23.1361 33.7075C23.3443 33.7276 23.5524 33.7384 23.8155 33.757C23.1173 33.1139 22.6099 32.392 22.1791 31.6067C21.3376 30.0732 20.7897 28.4161 20.3877 26.7017C19.7256 23.8789 19.4726 21.0067 19.5015 18.1005C19.503 18.0217 19.5015 17.9429 19.5015 17.8625C19.2442 17.8161 19.0115 17.7744 18.7801 17.7311C16.7373 17.3539 14.7364 16.8113 12.8107 15.9827C11.3563 15.3582 9.96551 14.6084 8.76558 13.5155C7.5555 12.4164 6.66059 11.1257 6.69095 9.27525ZM28.2106 33.7477C28.3075 33.7477 28.3696 33.7524 28.4304 33.7477C30.2621 33.5915 32.0693 33.2824 33.8446 32.7754C36.9255 31.8958 39.7952 30.5385 42.3426 28.4624C44.2683 26.8934 45.8658 25.0198 46.9429 22.6809C48.0156 20.3529 48.3828 17.9026 47.9751 15.3381C47.6209 13.1151 46.7086 11.1597 45.4162 9.39427C45.3916 9.36182 45.3583 9.33708 45.3324 9.3108C45.3049 9.62618 45.2962 9.93378 45.2471 10.2337C45.0837 11.2091 44.6153 12.0191 44.0008 12.741C43.184 13.6995 42.1965 14.4183 41.134 15.0243C38.9119 16.2903 36.5265 17.0447 34.0701 17.5672C33.554 17.6769 33.035 17.7698 32.5102 17.8702C32.5073 17.9351 32.503 17.9877 32.503 18.0418C32.5261 19.8628 32.4292 21.6761 32.1965 23.4802C31.955 25.3583 31.5806 27.2041 30.9632 28.9849C30.3517 30.7518 29.5855 32.4245 28.2106 33.7477ZM24.9837 2.5415C24.8117 2.5415 24.6801 2.53223 24.5514 2.54304C23.2576 2.65744 21.9608 2.74246 20.6711 2.90014C19.0187 3.1011 17.3965 3.48138 15.8164 4.04098C14.6656 4.44908 13.5509 4.94376 12.5606 5.71205C12.0936 6.07533 11.6744 6.48962 11.3838 7.03376C11.1062 7.55316 11.0151 8.10194 11.1713 8.68474C11.2841 9.10521 11.4995 9.46384 11.7713 9.78539C12.3134 10.4269 12.9799 10.8876 13.6926 11.2756C15.1427 12.0655 16.691 12.5493 18.2741 12.9142C18.7888 13.0332 19.3063 13.1291 19.8326 13.2372C19.8528 13.1445 19.8717 13.0796 19.8803 13.0131C20.0538 11.8012 20.2894 10.6047 20.6162 9.42983C21.0572 7.83915 21.6181 6.30411 22.4841 4.91438C23.0147 4.06108 23.6392 3.30515 24.4907 2.79966C24.6411 2.71155 24.7958 2.63889 24.9837 2.5415ZM32.1632 13.2264C33.2822 13.0394 34.3651 12.7936 35.4276 12.4612C36.7129 12.0594 37.9649 11.5693 39.1013 10.7902C39.6087 10.4424 40.0728 10.042 40.4357 9.52104C41.0674 8.61208 41.0674 7.64282 40.4371 6.73077C40.0713 6.20208 39.6 5.80171 39.0883 5.44925C38.1601 4.81236 37.1495 4.3687 36.1043 4.01006C33.1824 3.0099 30.1681 2.63579 27.1162 2.53377C27.0974 2.53377 27.0786 2.5415 27.0193 2.55387C27.8462 2.90169 28.4708 3.46437 28.9899 4.16001C29.2789 4.54648 29.5523 4.95304 29.7893 5.37814C30.8953 7.36766 31.5025 9.55195 31.9232 11.8027C32.0099 12.268 32.0808 12.738 32.1632 13.2264ZM22.1024 18.1917C22.1024 18.2876 22.0995 18.3665 22.1024 18.4468C22.1573 19.9324 22.3048 21.404 22.62 22.854C22.8845 24.0706 23.2387 25.2517 23.8257 26.3415C24.0903 26.8346 24.4026 27.2876 24.819 27.6508C25.5794 28.314 26.4425 28.3342 27.1783 27.6416C27.5123 27.3277 27.8043 26.9428 28.053 26.5456C28.5691 25.72 28.8814 24.7879 29.1431 23.8403C29.5523 22.3594 29.7605 20.8413 29.8602 19.3032C29.8847 18.9384 29.8935 18.5736 29.9093 18.1902C27.2955 18.4282 24.709 18.4282 22.1024 18.1917ZM22.3684 13.5588C24.8044 13.7861 27.2116 13.7876 29.6361 13.5573C29.5826 13.2465 29.5377 12.9591 29.4828 12.673C29.2327 11.3761 28.8872 10.1131 28.3017 8.93825C28.0039 8.34 27.6497 7.78349 27.1436 7.35839C26.4063 6.74159 25.604 6.74159 24.8667 7.35529C24.4474 7.70311 24.1322 8.14677 23.8677 8.63217C23.0393 10.1502 22.6504 11.8197 22.3684 13.5588Z" fill="white"/>
</svg>
