<svg width="160" height="36" viewBox="0 0 160 36" fill="none" xmlns="http://www.w3.org/2000/svg">
  <path fill-rule="evenodd" clip-rule="evenodd" d="M12.2576 17.7729C15.0758 18.9395 17.0429 20.6242 18.7471 24.3815C20.5166 20.6242 22.3522 18.7451 25.3011 17.5784C27.7268 16.6716 30.217 15.8293 32.6427 14.9223C32.708 14.9869 32.708 15.0514 32.708 15.1168C32.8394 15.9591 32.9047 16.9305 32.9047 17.9673C32.9047 28.2696 26.0226 30.3431 18.7471 30.2786C11.536 30.3431 4.65395 28.2696 4.65395 17.9673C4.65395 17.1895 4.65395 16.4126 4.78538 15.7647C4.85065 15.6348 4.85065 15.5049 4.91592 15.3113C7.34165 16.1536 9.76657 16.9959 12.2576 17.7729ZM31.0691 10.6454C31.0038 10.5809 31.0038 10.4518 30.9386 10.3864C28.3169 6.56377 23.6631 5.72138 18.7471 5.72138C13.8312 5.72138 9.04592 6.62821 6.55491 10.5163C6.42437 10.6454 6.35821 10.8407 6.29294 10.9698C10.6187 13.4322 15.4693 13.4322 18.7471 19.6519C21.7622 13.2377 26.7433 13.1723 31.0691 10.6454ZM34.6089 8.44284C34.4131 8.24839 34.2816 8.11847 34.1502 7.92402C30.3484 3.84231 24.0564 3 18.7471 3C13.4377 3 6.94824 3.84231 3.21255 8.18379C3.14639 8.24831 3.08111 8.37823 3.01496 8.44276C1.11495 10.6454 0 13.7557 0 17.9673C0 30.9265 10.6847 33 18.7471 33C26.9399 33 37.5586 30.9265 37.5586 17.9673C37.5586 13.7557 36.4445 10.6454 34.6089 8.44284ZM160 13.6912V27.6217H144.794C144.794 27.6217 139.812 27.5572 139.091 22.6331C137.912 26.1968 135.421 27.5572 132.733 27.5572H118.705V13.3669L100.812 27.6218H82.6547C82.6547 27.6218 79.5083 27.6218 77.9355 25.0302V27.6218H71.3807V16.5425C71.3807 16.5425 71.7741 14.0801 68.759 14.0801H66.5962V27.6217H60.3033V14.08H55.6494V27.6217H49.0293V8.31291H70.9219C70.9219 8.31291 77.9354 7.79497 77.9354 15.5049V17.7083C79.5082 15.3113 82.6546 15.4404 83.7043 15.4404H91.9624C91.9624 15.4404 92.3559 13.4968 89.4062 13.4968H79.0496V8.31291H92.094C92.094 8.31291 97.862 8.05394 97.862 13.6912V22.2435L115.691 8.31291H133.191C133.191 8.31291 139.878 8.05394 139.878 16.866V17.7729C141.45 15.3112 144.728 15.4404 145.711 15.4404H154.035C154.035 15.4404 154.494 13.4968 151.479 13.4968H141.188V8.31291H154.167C154.167 8.31291 160 8.05394 160 13.6912ZM102.843 27.6217L109.857 21.9199H117.592V27.6217H102.843ZM113.658 8.31283L106.646 14.08H98.9107V8.31291L113.658 8.31283ZM147.088 19.7172H153.839V22.3088H146.891C146.891 22.3088 145.514 22.3733 145.514 21.013C145.514 19.8472 146.694 19.7172 147.088 19.7172ZM85.0142 19.7172H91.8972V22.3088H84.9498C84.9498 22.3088 83.572 22.3733 83.572 21.013C83.572 19.8472 84.6217 19.7172 85.0142 19.7172ZM130.897 21.9198H124.998V13.7557H131.029C131.029 13.7557 133.848 13.9501 133.848 17.5784C133.848 21.1421 132.47 21.9198 130.897 21.9198Z" fill="black"/>
</svg>
