<svg width="195" height="36" viewBox="0 0 195 36" fill="none" xmlns="http://www.w3.org/2000/svg">
  <path d="M26.2001 32C40.6648 32 52.4003 25.9542 52.4003 18.5344C52.3321 11.0458 40.6648 5 26.2001 5C11.7355 5 0 11.0458 0 18.4656C0 25.9542 11.7355 32 26.2001 32ZM31.1127 25.3359C30.7033 26.3664 29.9528 28.4962 28.1788 29.3893C27.633 29.6641 27.0189 29.8015 26.4048 29.8015H26.1319C21.2876 29.8015 16.8527 29.1145 13.0318 27.9466L12.8954 27.8779C12.5542 27.7405 12.3495 27.6031 12.3495 27.3969C12.3495 27.2595 12.4178 27.1221 12.5542 26.9847C12.6225 26.916 12.6907 26.8473 12.8272 26.7786C13.7141 26.0229 16.3069 24.1679 21.2194 22.2443C22.9251 21.5573 25.1085 20.7328 27.36 20.2519C28.7929 20.0458 33.7054 19.2901 31.1127 25.3359ZM44.3492 11.7328C44.4174 11.5954 44.5539 11.458 44.7586 11.3893C44.895 11.3893 45.0315 11.3893 45.3044 11.5954C48.3747 13.5191 50.2169 15.855 50.2169 18.4656C50.2169 23.1374 44.281 27.1221 35.7523 28.8397C35.2064 28.9771 34.8653 28.9084 34.7288 28.8397C34.6606 28.771 34.6606 28.6336 34.7288 28.4275C34.7971 28.3588 34.8653 28.2214 34.9335 28.084C39.5731 22.5878 43.0528 14.4809 44.0763 12.145C44.2127 12.0076 44.281 11.8702 44.3492 11.7328ZM21.3558 11.5954C21.7652 10.5649 22.5157 8.43511 24.2897 7.54198C24.8356 7.26718 25.4496 7.12977 26.0637 7.12977H26.3366C31.1809 7.12977 35.6158 7.81679 39.4367 8.98473L39.5731 9.05344C39.846 9.12214 39.9825 9.25954 39.9825 9.46565C39.9825 9.67176 39.9143 9.74046 39.7778 9.87786L39.5731 10.084C38.6861 10.8397 36.0934 12.6947 31.1809 14.6183C29.4752 15.3053 27.2918 16.1298 25.0402 16.6107C23.6757 16.8855 18.7631 17.6412 21.3558 11.5954ZM16.5798 8.0916C17.1256 7.9542 17.4668 7.9542 17.6032 8.16031C17.6714 8.22901 17.7397 8.36641 17.6032 8.57252C17.535 8.70992 17.4668 8.77863 17.3985 8.91603C12.7589 14.4122 9.27922 22.5191 8.25577 24.855C8.18754 24.9924 8.11931 25.1985 8.05108 25.2672C7.98286 25.4046 7.8464 25.542 7.64171 25.6107C7.50525 25.6107 7.36879 25.6107 7.09587 25.4046C4.02554 23.4809 2.18335 21.145 2.18335 18.5344C2.18335 13.7939 8.11932 9.80916 16.5798 8.0916ZM75.5983 8.84733V16.1985H67.3426V8.84733H62.7712V28.084H67.3426V20.3893H75.5983V28.084H80.1697V8.84733H75.5983ZM96.8859 8.84733L92.1099 16.4733L87.3338 8.84733H81.9437L89.7901 21.4198V28.084H94.3614V21.4198L102.208 8.84733H96.8859ZM116.877 8.84733V23C116.877 23.5496 116.468 23.9618 115.922 23.9618H108.621V8.84733H104.05V28.1527H117.491C118.719 28.1527 119.675 27.8092 120.357 27.0534C121.039 26.3664 121.38 25.4046 121.38 24.1679V8.84733H116.877ZM139.12 8.84733H125.679V28.1527H130.25V13.0382H137.551C138.165 13.0382 138.506 13.5191 138.506 14V28.1527H143.077V12.7634C143.077 11.5267 142.736 10.5649 142.054 9.87786C141.303 9.19084 140.348 8.84733 139.12 8.84733ZM160.749 8.84733H147.308V28.1527H160.749C161.977 28.1527 162.932 27.8092 163.614 27.0534C164.297 26.3664 164.706 25.4046 164.706 24.1679V12.7634C164.706 11.5267 164.365 10.5649 163.614 9.87786C162.864 9.19084 161.909 8.84733 160.749 8.84733ZM160.066 14V22.9313C160.066 23.4809 159.657 23.9618 159.111 23.9618H151.811V13.0382H159.111C159.657 13.0382 160.066 13.4504 160.066 14ZM172.552 8.84733C171.324 8.84733 170.369 9.19084 169.687 9.94656C169.005 10.6336 168.663 11.5954 168.663 12.8321V28.1527H173.235V22.1756H181.491V28.1527H186.062V8.84733H172.552ZM181.491 13.0382V17.9847H173.235V14C173.235 13.5191 173.576 13.0382 174.19 13.0382H181.491ZM194.795 8.84733H190.497V28.084H195V8.84733H194.795Z" fill="black"/>
</svg>
